<svg xmlns="http://www.w3.org/2000/svg" xmlns:xlink="http://www.w3.org/1999/xlink" viewBox="0 0 363.43419 364.55757"><defs><style>.a{fill:#e6e7e8;}.b{fill:none;}.c{fill:#f1f1f2;}.d{fill:url(#a);}.e{fill:#d0d2d3;}.f{fill:url(#b);}.g{fill:url(#c);}.h{fill:url(#d);}.i{clip-path:url(#e);}.j{fill:url(#f);}.k{clip-path:url(#g);}.l{fill:#ffcd28;}.m{clip-path:url(#h);}.n{fill:url(#i);}.o{clip-path:url(#l);}.p{fill:url(#m);}.q{clip-path:url(#p);}.r{fill:url(#q);}.s{clip-path:url(#t);}.t{fill:url(#u);}.u{clip-path:url(#v);}.v{fill:url(#w);}.w{clip-path:url(#x);}.x{clip-path:url(#aa);}.y{fill:url(#ab);}.z{clip-path:url(#ac);}.aa{fill:url(#ad);}.ab{clip-path:url(#ae);}.ac{clip-path:url(#ag);}.ad{fill:url(#ah);}.ae{clip-path:url(#ai);}.af{fill:url(#aj);}.ag{clip-path:url(#ak);}.ah{clip-path:url(#al);}.ai{fill:url(#am);}.aj{clip-path:url(#an);}.ak{fill:url(#ao);}.al{clip-path:url(#ap);}.am{clip-path:url(#ar);}.an{fill:url(#as);}.ao{clip-path:url(#at);}.ap{fill:url(#au);}.aq{clip-path:url(#av);}.ar{fill:url(#aw);}</style><linearGradient id="a" x1="170.05631" y1="196.47192" x2="161.05631" y2="269.47192" gradientUnits="userSpaceOnUse"><stop offset="0" stop-color="#fff100"/><stop offset="0.06033" stop-color="#fee903"/><stop offset="0.28458" stop-color="#f9ce0e"/><stop offset="0.51383" stop-color="#f6bb16"/><stop offset="0.74921" stop-color="#f5b01a"/><stop offset="1" stop-color="#f4ac1c"/></linearGradient><linearGradient id="b" x1="245.90684" y1="289.58405" x2="218.90684" y2="196.58405" gradientUnits="userSpaceOnUse"><stop offset="0.15764" stop-color="#eb008b"/><stop offset="1" stop-color="#740041"/></linearGradient><linearGradient id="c" x1="253.15942" y1="152.36266" x2="203.15942" y2="115.36266" gradientUnits="userSpaceOnUse"><stop offset="0.15764" stop-color="#00adee"/><stop offset="1" stop-color="#00496e"/></linearGradient><linearGradient id="d" x1="174.47933" y1="201.17988" x2="135.47933" y2="161.17988" gradientUnits="userSpaceOnUse"><stop offset="0" stop-color="#383638"/><stop offset="1" stop-color="#355564"/></linearGradient><clipPath id="e"><path class="a" d="M124.3048,43.20857a4.2009,4.2009,0,0,0-3.902,2.58694c-4.23844,9.89531-10.56921,24.684-12.83027,29.96964-4.58119,10.69469-12.55819,29.3295-5.814,46.17358,8.13519,20.31265,26.27854,30.17,37.10191,36.05152,9.20666,4.9988,30.981,16.82616,43.8756,23.83292L128.31229,45.90728a4.23423,4.23423,0,0,0-3.96741-2.69871Z"/></clipPath><linearGradient id="f" x1="153.84624" y1="161.31054" x2="126.84624" y2="73.31054" gradientTransform="translate(135.63363 -66.18953) rotate(49.94663)" gradientUnits="userSpaceOnUse"><stop offset="0" stop-color="#383638"/><stop offset="1" stop-color="#58595b"/></linearGradient><clipPath id="g"><rect class="b" x="44.12668" y="43.20857" width="278.13934" height="281.46026"/></clipPath><clipPath id="h"><path class="e" d="M46.8254,236.24267a4.28179,4.28179,0,0,0-.11073,7.91056c9.89637,4.23739,24.684,10.56816,29.96964,12.83027,10.69576,4.58119,29.32633,12.55714,46.17147,5.814,20.31372-8.1352,30.169-26.28065,36.05152-37.103,4.99987-9.20667,16.82826-30.981,23.83292-43.8735V181.82Z"/></clipPath><linearGradient id="i" x1="98.06297" y1="244.26194" x2="163.06297" y2="163.26194" gradientTransform="translate(213.02115 -6.0207) rotate(49.94663)" xlink:href="#a"/><clipPath id="l"><path class="f" d="M182.736,181.81474l54.42267,135.91587a4.28184,4.28184,0,0,0,7.91161.10968c4.23634-9.89426,10.56921-24.68187,12.83238-29.96859,4.578-10.6947,12.555-29.3295,5.81086-46.17253-8.13309-20.31371-26.27854-30.17-37.10191-36.05046-9.20666-5.00092-30.97995-16.82827-43.87454-23.834Z"/></clipPath><linearGradient id="m" x1="238.27314" y1="291.80028" x2="211.27314" y2="198.80028" gradientTransform="translate(273.35378 -83.75878) rotate(49.94664)" xlink:href="#b"/><clipPath id="p"><path class="g" d="M242.61623,100.84249c-20.31267,8.13415-30.17,26.27643-36.05046,37.1019-5.00092,9.20562-16.82826,30.98-23.834,43.87457l135.91589-54.42373a4.28106,4.28106,0,0,0,.10965-7.91057c-9.89425-4.23843-24.684-10.56814-29.96858-12.83131-7.74393-3.31566-19.65143-8.41256-32.024-8.4136a37.751,37.751,0,0,0-14.14852,2.60274"/></clipPath><linearGradient id="q" x1="258.82298" y1="144.7092" x2="208.82298" y2="107.7092" gradientTransform="translate(197.20045 -143.35376) rotate(49.94663)" xlink:href="#c"/><clipPath id="t"><path class="h" d="M133.6127,201.49041c3.84719,9.60636,40.45659-5.05153,52.96733-10.06089a10.34885,10.34885,0,0,0,.22779-19.1199s-38.2103-16.36-50.94776-21.81442c-10.22119-4.37553-27.35634-11.71239-34.10157-28.55647Z"/></clipPath><linearGradient id="u" x1="164.83599" y1="189.0478" x2="128.83599" y2="130.0478" gradientTransform="translate(69.78954 -40.73733) rotate(21.82163)" xlink:href="#f"/><clipPath id="v"><path class="b" d="M111.04847,67.27033c-2.78309,6.67141-6.62078,14.42588-9.42707,23.61674-2.7272,9.07588-4.3207,20.18082-.28053,30.73317,4.02014,10.546,12.59193,17.83329,20.83786,22.53892,8.3904,4.68982,16.52559,7.63,23.1411,10.54707,13.27215,5.60308,21.516,9.05269,21.58768,9.08326-.07172-.03163-8.25753-3.61727-21.47379-9.3543-6.58492-2.9803-14.70323-5.99751-23.00821-10.70525-8.16894-4.72567-16.58466-11.94967-20.5373-22.32168-3.97268-10.36462-2.45511-21.33774.2067-30.38093,2.73458-9.1476,6.50689-16.94321,9.22459-23.642,5.62736-13.33121,9.08328-21.58978,9.08328-21.58978s-3.592,8.20163-9.35431,21.47482"/></clipPath><linearGradient id="w" x1="-237.78616" y1="477.10214" x2="-236.73156" y2="477.10214" gradientTransform="matrix(0.00001, -120.26005, -120.26005, -0.00001, 57508.43352, -28423.67467)" gradientUnits="userSpaceOnUse"><stop offset="0" stop-color="#d5d6d6"/><stop offset="0.25" stop-color="#d5d6d6"/><stop offset="0.75" stop-color="#fff"/><stop offset="1" stop-color="#fff"/></linearGradient><clipPath id="x"><path class="c" d="M111.04847,67.27033c-2.78309,6.67141-6.62078,14.42588-9.42707,23.61674-2.7272,9.07588-4.3207,20.18082-.28053,30.73317,4.02014,10.546,12.59193,17.83329,20.83786,22.53892,8.3904,4.68982,16.52559,7.63,23.1411,10.54707,13.27215,5.60308,21.516,9.05269,21.58768,9.08326-.07172-.03163-8.25753-3.61727-21.47379-9.3543-6.58492-2.9803-14.70323-5.99751-23.00821-10.70525-8.16894-4.72567-16.58466-11.94967-20.5373-22.32168-3.97268-10.36462-2.45511-21.33774.2067-30.38093,2.73458-9.1476,6.50689-16.94321,9.22459-23.642,5.62736-13.33121,9.08328-21.58978,9.08328-21.58978s-3.592,8.20163-9.35431,21.47482"/></clipPath><clipPath id="aa"><path class="d" d="M178.893,172.21365a10.31623,10.31623,0,0,0-5.66637,5.53349s-16.36,38.2124-21.81336,50.94776c-4.37659,10.22224-11.71239,27.35633-28.55753,34.10262l79.55169-31.85316c9.60847-3.8493-5.05048-40.4587-10.06088-52.97154a10.34224,10.34224,0,0,0-13.45355-5.75917"/></clipPath><linearGradient id="ab" x1="169.98431" y1="196.46305" x2="160.98431" y2="269.46305" gradientTransform="translate(92.71012 -46.68036) rotate(21.82162)" xlink:href="#a"/><clipPath id="ac"><path class="b" d="M155.35225,219.12018c-2.98031,6.586-5.99752,14.70429-10.70526,23.00822-4.72566,8.17-11.94968,16.58465-22.32062,20.54046-10.36462,3.97057-21.33774,2.453-30.382-.20776-9.14761-2.73669-16.94216-6.50794-23.641-9.22459-13.33227-5.62841-21.58873-9.08328-21.58873-9.08328s8.19952,3.59092,21.47166,9.35326c6.67141,2.782,14.42905,6.61972,23.61779,9.42918,9.07589,2.7272,20.18189,4.3207,30.73422.28052,10.546-4.02435,17.8333-12.59509,22.53577-20.84,4.694-8.3904,7.6353-16.5256,10.54917-23.14005,5.62734-13.3312,9.08222-21.58557,9.08327-21.58873-.001.00316-3.592,8.20163-9.3543,21.47273"/></clipPath><linearGradient id="ad" x1="-240.8843" y1="479.47849" x2="-239.8297" y2="479.47849" gradientTransform="matrix(-120.25899, 0, 0, 120.25899, -28795.08487, -57429.14911)" xlink:href="#w"/><clipPath id="ae"><path class="c" d="M155.35225,219.12018c-2.98031,6.586-5.99752,14.70429-10.70526,23.00822-4.72566,8.17-11.94968,16.58465-22.32062,20.54046-10.36462,3.97057-21.33774,2.453-30.382-.20776-9.14761-2.73669-16.94216-6.50794-23.641-9.22459-13.33227-5.62841-21.58873-9.08328-21.58873-9.08328s8.19952,3.59092,21.47166,9.35326c6.67141,2.782,14.42905,6.61972,23.61779,9.42918,9.07589,2.7272,20.18189,4.3207,30.73422.28052,10.546-4.02435,17.8333-12.59509,22.53577-20.84,4.694-8.3904,7.6353-16.5256,10.54917-23.14005,5.62734-13.3312,9.08222-21.58557,9.08327-21.58873-.001.00316-3.592,8.20163-9.3543,21.47273"/></clipPath><clipPath id="ag"><path class="b" d="M178.88988,172.20944a10.34844,10.34844,0,0,0-.22569,19.11885s38.21029,16.359,50.94776,21.81125c10.22224,4.37976,27.35635,11.7145,34.10157,28.55963L231.8593,162.14643c-.91223-2.28005-3.67211-3.19227-7.513-3.19227-12.35045-.00106-35.91127,9.43235-45.45646,13.25528"/></clipPath><linearGradient id="ah" x1="200.22395" y1="176.25762" x2="236.22395" y2="225.25762" gradientTransform="translate(90.07884 -66.64572) rotate(21.82162)" xlink:href="#b"/><clipPath id="ai"><path class="b" d="M220.03829,209.20166c6.586,2.9803,14.70535,5.99856,23.00822,10.70525,8.16894,4.72777,16.58465,11.94967,20.53834,22.31956,3.97269,10.36357,2.45407,21.34091-.20775,30.38516-2.73564,9.14866-6.50584,16.94321-9.22354,23.641-5.62735,13.33332-9.08328,21.58768-9.08328,21.58768s3.59093-8.19636,9.35326-21.47273c2.78309-6.66823,6.62184-14.42693,9.42813-23.61461,2.72719-9.077,4.32176-20.183.28053-30.73529-4.0212-10.546-12.594-17.83329-20.83681-22.53786-8.39146-4.69192-16.52664-7.63215-23.14216-10.54707-13.3312-5.6284-21.58872-9.08327-21.58872-9.08327s8.19951,3.59091,21.47378,9.3522"/></clipPath><linearGradient id="aj" x1="-238.50792" y1="482.57661" x2="-237.45332" y2="482.57661" gradientTransform="matrix(0, 120.26003, 120.26003, 0, -57801.30961, 28874.10976)" xlink:href="#w"/><clipPath id="ak"><path class="c" d="M220.03829,209.20166c6.586,2.9803,14.70535,5.99856,23.00822,10.70525,8.16894,4.72777,16.58465,11.94967,20.53834,22.31956,3.97269,10.36357,2.45407,21.34091-.20775,30.38516-2.73564,9.14866-6.50584,16.94321-9.22354,23.641-5.62735,13.33332-9.08328,21.58768-9.08328,21.58768s3.59093-8.19636,9.35326-21.47273c2.78309-6.66823,6.62184-14.42693,9.42813-23.61461,2.72719-9.077,4.32176-20.183.28053-30.73529-4.0212-10.546-12.594-17.83329-20.83681-22.53786-8.39146-4.69192-16.52664-7.63215-23.14216-10.54707-13.3312-5.6284-21.58872-9.08327-21.58872-9.08327s8.19951,3.59091,21.47378,9.3522"/></clipPath><clipPath id="al"><path class="b" d="M163.06454,132.69566c-9.60847,3.84717,5.05259,40.45659,10.06194,52.96941a10.34844,10.34844,0,0,0,19.11886.22569s16.36-38.21135,21.81336-50.94775c4.37765-10.22224,11.71345-27.35635,28.55753-34.10052Z"/></clipPath><linearGradient id="am" x1="185.39763" y1="120.01792" x2="213.39763" y2="179.01792" gradientTransform="translate(68.70232 -63.10561) rotate(21.82163)" xlink:href="#c"/><clipPath id="an"><path class="b" d="M242.93472,100.42065c-10.546,4.02331-17.83435,12.59509-22.53681,20.841-4.693,8.38725-7.63215,16.5235-10.54812,23.14216-5.62841,13.32911-9.08328,21.58663-9.08328,21.58663s3.58987-8.19953,9.3522-21.47378c2.98136-6.586,5.99752-14.70324,10.70631-23.00717,4.72671-8.17,11.94863-16.58781,22.31957-20.5394,10.36566-3.97268,21.33984-2.453,30.383.2088,9.14867,2.73459,16.94321,6.50478,23.64309,9.22144,13.33121,5.62841,21.58661,9.08432,21.58661,9.08432s-8.19739-3.592-21.47061-9.3543c-6.67245-2.7831-14.428-6.62078-23.61777-9.42707a59.23384,59.23384,0,0,0-16.90631-2.72615,38.45567,38.45567,0,0,0-13.82792,2.44351"/></clipPath><linearGradient id="ao" x1="-235.40979" y1="480.19788" x2="-234.35519" y2="480.19788" gradientTransform="matrix(120.25899, 0, 0, -120.25899, 28502.31377, 57879.60749)" xlink:href="#w"/><clipPath id="ap"><path class="c" d="M242.93472,100.42065c-10.546,4.02331-17.83435,12.59509-22.53681,20.841-4.693,8.38725-7.63215,16.5235-10.54812,23.14216-5.62841,13.32911-9.08328,21.58663-9.08328,21.58663s3.58987-8.19953,9.3522-21.47378c2.98136-6.586,5.99752-14.70324,10.70631-23.00717,4.72671-8.17,11.94863-16.58781,22.31957-20.5394,10.36566-3.97268,21.33984-2.453,30.383.2088,9.14867,2.73459,16.94321,6.50478,23.64309,9.22144,13.33121,5.62841,21.58661,9.08432,21.58661,9.08432s-8.19739-3.592-21.47061-9.3543c-6.67245-2.7831-14.428-6.62078-23.61777-9.42707a59.23384,59.23384,0,0,0-16.90631-2.72615,38.45567,38.45567,0,0,0-13.82792,2.44351"/></clipPath><clipPath id="ar"><path class="b" d="M174.9752,182.33992a7.76028,7.76028,0,1,0,7.75976-7.75974,7.76275,7.76275,0,0,0-7.75976,7.75974"/></clipPath><linearGradient id="as" x1="-238.92583" y1="474.4386" x2="-237.87123" y2="474.4386" gradientTransform="translate(28644.50488 14462.2687) rotate(89.99999) scale(59.99041)" gradientUnits="userSpaceOnUse"><stop offset="0" stop-color="#98bc7e"/><stop offset="0.00389" stop-color="#98bc7e"/><stop offset="0.07001" stop-color="#61ad45"/><stop offset="0.08" stop-color="#75bf43"/><stop offset="0.22" stop-color="#75bf43"/><stop offset="0.24" stop-color="#569f44"/><stop offset="0.35883" stop-color="#387935"/><stop offset="0.46948" stop-color="#215e2b"/><stop offset="0.56671" stop-color="#144d24"/><stop offset="0.64" stop-color="#0f4722"/><stop offset="0.70573" stop-color="#2f7033"/><stop offset="0.75844" stop-color="#43893e"/><stop offset="0.78999" stop-color="#4b9342"/><stop offset="1" stop-color="#61ad45"/></linearGradient><clipPath id="at"><path class="b" d="M174.96887,181.82a7.76081,7.76081,0,1,0,7.76081-7.75975,7.76205,7.76205,0,0,0-7.76081,7.75975"/></clipPath><linearGradient id="au" x1="-227.13299" y1="460.25823" x2="-226.0784" y2="460.25823" gradientTransform="matrix(0, -14.71814, -14.71814, 0, 6956.87279, -3153.39235)" gradientUnits="userSpaceOnUse"><stop offset="0" stop-color="#b2b4b4"/><stop offset="0.3" stop-color="#838687"/><stop offset="1" stop-color="#e8e8e6"/></linearGradient><clipPath id="av"><path class="b" d="M182.72968,174.57912a7.24248,7.24248,0,1,0,.00315,0Z"/></clipPath><radialGradient id="aw" cx="-231.13529" cy="503.23745" r="1.07005" gradientTransform="matrix(0, 13.58419, 13.58419, 0, -6648.16835, 3316.49737)" gradientUnits="userSpaceOnUse"><stop offset="0" stop-color="#e8e8e6"/><stop offset="0.25" stop-color="#e8e8e6"/><stop offset="0.36864" stop-color="#dfe0de"/><stop offset="0.55816" stop-color="#c8cac9"/><stop offset="0.79372" stop-color="#a3a6a6"/><stop offset="0.79671" stop-color="#a2a5a6"/><stop offset="0.86614" stop-color="#a8abac"/><stop offset="0.9607" stop-color="#babcbb"/><stop offset="1" stop-color="#c3c5c4"/></radialGradient></defs><title>Asset 1</title><path class="a" d="M124.3048,43.20857a4.2009,4.2009,0,0,0-3.902,2.58694c-4.23844,9.89531-10.56921,24.684-12.83027,29.96964-4.58119,10.69469-12.55819,29.3295-5.814,46.17358,8.13519,20.31265,26.27854,30.17,37.10191,36.05152,9.20666,4.9988,30.981,16.82616,43.8756,23.83292L128.31229,45.90728a4.23423,4.23423,0,0,0-3.96741-2.69871Z"/><g class="i"><rect class="j" x="57.59973" y="34.34351" width="162.55086" height="156.34476" transform="translate(-36.6159 146.41315) rotate(-49.94663)"/></g><g class="k"><path class="l" d="M128.31334,45.90709S152.54384,106.81345,182.6,181.87674l.271-.10862c-30.05613-75.0633-54.55766-135.861-54.55766-135.861"/></g><path class="e" d="M46.8254,236.24267a4.28179,4.28179,0,0,0-.11073,7.91056c9.89637,4.23739,24.684,10.56816,29.96964,12.83027,10.69576,4.58119,29.32633,12.55714,46.17147,5.814,20.31372-8.1352,30.169-26.28065,36.05152-37.103,4.99987-9.20667,16.82826-30.981,23.83292-43.8735V181.82Z"/><g class="m"><rect class="n" x="34.50695" y="144.05407" width="156.93439" height="163.2525" transform="translate(-132.47078 166.93038) rotate(-49.94663)"/></g><g class="k"><path class="l" d="M46.82487,236.24162s60.90635-24.2305,135.96964-54.28556l-.10862-.2721c-75.06435,30.05507-135.861,54.55766-135.861,54.55766"/></g><path class="f" d="M182.736,181.81474l54.42267,135.91587a4.28184,4.28184,0,0,0,7.91161.10968c4.23634-9.89426,10.56921-24.68187,12.83238-29.96859,4.578-10.6947,12.555-29.3295,5.81086-46.17253-8.13309-20.31371-26.27854-30.17-37.10191-36.05046-9.20666-5.00092-30.97995-16.82827-43.87454-23.834Z"/><g class="o"><rect class="p" x="144.96945" y="173.11358" width="163.25476" height="156.93655" transform="translate(-111.79059 263.13625) rotate(-49.94664)"/></g><g class="k"><path class="l" d="M237.15931,317.73051s-24.22946-60.90529-54.28664-135.96965l-.27208.10863c30.05718,75.06224,54.55872,135.861,54.55872,135.861"/></g><path class="g" d="M242.61623,100.84249c-20.31267,8.13415-30.17,26.27643-36.05046,37.1019-5.00092,9.20562-16.82826,30.98-23.834,43.87457l135.91589-54.42373a4.28106,4.28106,0,0,0,.10965-7.91057c-9.89425-4.23843-24.684-10.56814-29.96858-12.83131-7.74393-3.31566-19.65143-8.41256-32.024-8.4136a37.751,37.751,0,0,0-14.14852,2.60274"/><g class="q"><rect class="r" x="175.61604" y="59.7348" width="153.76571" height="160.58914" transform="translate(-17.16921 243.19444) rotate(-49.94663)"/></g><g class="k"><path class="l" d="M318.64713,127.395s-60.90529,24.23052-135.96861,54.28769l.10862.27c75.06332-30.05295,135.86-54.55766,135.86-54.55766"/></g><path class="h" d="M133.6127,201.49041c3.84719,9.60636,40.45659-5.05153,52.96733-10.06089a10.34885,10.34885,0,0,0,.22779-19.1199s-38.2103-16.36-50.94776-21.81442c-10.22119-4.37553-27.35634-11.71239-34.10157-28.55647Z"/><g class="s"><rect class="t" x="88.46993" y="108.10568" width="118.19131" height="116.82416" transform="translate(-50.25009 64.6712) rotate(-21.21117)"/></g><g class="u"><rect class="v" x="77.86424" y="37.08587" width="108.47968" height="135.41332" transform="translate(-29.48746 56.61435) rotate(-21.82163)"/></g><path class="c" d="M111.04847,67.27033c-2.78309,6.67141-6.62078,14.42588-9.42707,23.61674-2.7272,9.07588-4.3207,20.18082-.28053,30.73317,4.02014,10.546,12.59193,17.83329,20.83786,22.53892,8.3904,4.68982,16.52559,7.63,23.1411,10.54707,13.27215,5.60308,21.516,9.05269,21.58768,9.08326-.07172-.03163-8.25753-3.61727-21.47379-9.3543-6.58492-2.9803-14.70323-5.99751-23.00821-10.70525-8.16894-4.72567-16.58466-11.94967-20.5373-22.32168-3.97268-10.36462-2.45511-21.33774.2067-30.38093,2.73458-9.1476,6.50689-16.94321,9.22459-23.642,5.62736-13.33121,9.08328-21.58978,9.08328-21.58978s-3.592,8.20163-9.35431,21.47482"/><g class="w"><rect class="v" x="77.86424" y="37.08587" width="108.47968" height="135.41332" transform="translate(-29.48746 56.61435) rotate(-21.82163)"/></g><path class="d" d="M178.893,172.21365a10.31623,10.31623,0,0,0-5.66637,5.53349s-16.36,38.2124-21.81336,50.94776c-4.37659,10.22224-11.71239,27.35633-28.55753,34.10262l79.55169-31.85316c9.60847-3.8493-5.05048-40.4587-10.06088-52.97154a10.34224,10.34224,0,0,0-13.45355-5.75917"/><g class="x"><rect class="y" x="109.07611" y="158.17095" width="116.71949" height="117.9258" transform="translate(-68.71509 77.79755) rotate(-21.82162)"/></g><g class="z"><rect class="aa" x="38.00452" y="178.21149" width="135.41215" height="108.48086" transform="translate(-78.832 55.95077) rotate(-21.82163)"/></g><path class="c" d="M155.35225,219.12018c-2.98031,6.586-5.99752,14.70429-10.70526,23.00822-4.72566,8.17-11.94968,16.58465-22.32062,20.54046-10.36462,3.97057-21.33774,2.453-30.382-.20776-9.14761-2.73669-16.94216-6.50794-23.641-9.22459-13.33227-5.62841-21.58873-9.08328-21.58873-9.08328s8.19952,3.59092,21.47166,9.35326c6.67141,2.782,14.42905,6.61972,23.61779,9.42918,9.07589,2.7272,20.18189,4.3207,30.73422.28052,10.546-4.02435,17.8333-12.59509,22.53577-20.84,4.694-8.3904,7.6353-16.5256,10.54917-23.14005,5.62734-13.3312,9.08222-21.58557,9.08327-21.58873-.001.00316-3.592,8.20163-9.3543,21.47273"/><g class="ab"><rect class="aa" x="38.00452" y="178.21149" width="135.41215" height="108.48086" transform="translate(-78.832 55.95077) rotate(-21.82163)"/></g><g class="ac"><rect class="ad" x="160.00349" y="144.89051" width="115.80688" height="110.87123" transform="matrix(0.92835, -0.37172, 0.37172, 0.92835, -58.85088, 95.35421)"/></g><g class="ae"><rect class="af" x="179.12872" y="191.13929" width="108.48049" height="135.41119" transform="translate(-79.49546 105.2949) rotate(-21.82163)"/></g><path class="c" d="M220.03829,209.20166c6.586,2.9803,14.70535,5.99856,23.00822,10.70525,8.16894,4.72777,16.58465,11.94967,20.53834,22.31956,3.97269,10.36357,2.45407,21.34091-.20775,30.38516-2.73564,9.14866-6.50584,16.94321-9.22354,23.641-5.62735,13.33332-9.08328,21.58768-9.08328,21.58768s3.59093-8.19636,9.35326-21.47273c2.78309-6.66823,6.62184-14.42693,9.42813-23.61461,2.72719-9.077,4.32176-20.183.28053-30.73529-4.0212-10.546-12.594-17.83329-20.83681-22.53786-8.39146-4.69192-16.52664-7.63215-23.14216-10.54707-13.3312-5.6284-21.58872-9.08327-21.58872-9.08327s8.19951,3.59091,21.47378,9.3522"/><g class="ag"><rect class="c" x="179.12872" y="191.13929" width="108.48049" height="135.41119" transform="translate(-79.49546 105.2949) rotate(-21.82163)"/></g><g class="ah"><rect class="ai" x="139.62328" y="87.55351" width="116.82574" height="118.19114" transform="translate(-40.32198 84.12172) rotate(-21.82163)"/></g><g class="aj"><rect class="ak" x="192.17079" y="77.53958" width="135.18223" height="107.90871" transform="translate(-30.26561 105.98036) rotate(-21.82163)"/></g><path class="c" d="M242.93472,100.42065c-10.546,4.02331-17.83435,12.59509-22.53681,20.841-4.693,8.38725-7.63215,16.5235-10.54812,23.14216-5.62841,13.32911-9.08328,21.58663-9.08328,21.58663s3.58987-8.19953,9.3522-21.47378c2.98136-6.586,5.99752-14.70324,10.70631-23.00717,4.72671-8.17,11.94863-16.58781,22.31957-20.5394,10.36566-3.97268,21.33984-2.453,30.383.2088,9.14867,2.73459,16.94321,6.50478,23.64309,9.22144,13.33121,5.62841,21.58661,9.08432,21.58661,9.08432s-8.19739-3.592-21.47061-9.3543c-6.67245-2.7831-14.428-6.62078-23.61777-9.42707a59.23384,59.23384,0,0,0-16.90631-2.72615,38.45567,38.45567,0,0,0-13.82792,2.44351"/><g class="al"><rect class="ak" x="192.17079" y="77.53958" width="135.18223" height="107.90871" transform="translate(-30.26561 105.98036) rotate(-21.82163)"/></g><g class="am"><rect class="an" x="172.64682" y="172.25156" width="20.17733" height="20.17675" transform="translate(-54.68542 80.99191) rotate(-21.82171)"/></g><g class="ao"><rect class="ap" x="174.96886" y="174.06025" width="15.5216" height="15.52163"/></g><g class="aq"><rect class="ar" x="172.48502" y="171.57537" width="20.48929" height="20.48929" transform="translate(-75.04588 182.46324) rotate(-45)"/></g></svg>