<svg xmlns="http://www.w3.org/2000/svg" xmlns:xlink="http://www.w3.org/1999/xlink" viewBox="0 0 360.09382 361.20687"><defs><style>.a{fill:none;}.b{fill:#d0d2d3;}.c{fill:url(#a);}.d{clip-path:url(#b);}.e{fill:#ffdd15;}.f{clip-path:url(#c);}.g{fill:#ffcd28;}.h{clip-path:url(#d);}.i{fill:#fff100;}.j{clip-path:url(#f);}.k{clip-path:url(#h);}.l{clip-path:url(#i);}.m{clip-path:url(#j);}.n{fill:#ec1c24;}.o{clip-path:url(#k);}.p{fill:url(#l);}.q{clip-path:url(#o);}.r{fill:#00adee;}.s{clip-path:url(#p);}.t{fill:url(#q);}.u{clip-path:url(#t);}.v{fill:#eb008b;}.w{clip-path:url(#u);}.x{fill:url(#v);}.y{clip-path:url(#y);}.z{fill:#00a14b;}.aa{clip-path:url(#z);}.ab{fill:url(#aa);}.ac{clip-path:url(#ad);}.ad{fill:url(#ae);}.ae{clip-path:url(#af);}.af{clip-path:url(#ah);}.ag{fill:url(#ai);}</style><radialGradient id="a" cx="181.05019" cy="180.15044" r="7.17669" gradientUnits="userSpaceOnUse"><stop offset="0" stop-color="#fff"/><stop offset="0.11513" stop-color="#f6f7f7"/><stop offset="0.29923" stop-color="#dfdfe0"/><stop offset="0.52924" stop-color="#b9baba"/><stop offset="0.7935" stop-color="#858687"/><stop offset="0.9964" stop-color="#58595b"/></radialGradient><clipPath id="b"><path class="a" d="M123.1623,42.81143a4.1623,4.1623,0,0,0-3.86616,2.56316c-4.19949,9.80437-10.47206,24.4571-12.71235,29.69419-4.53907,10.5964-12.44276,29.05993-5.76057,45.7492,8.06041,20.12595,26.037,29.8927,36.7609,35.72016,9.122,4.95286,30.69625,16.67151,43.47233,23.61387L127.133,45.48534a4.1953,4.1953,0,0,0-3.93094-2.67391Z"/></clipPath><clipPath id="c"><rect class="a" x="43.7211" y="42.81143" width="275.58292" height="278.87332"/></clipPath><clipPath id="d"><path class="a" d="M46.395,234.07134a4.24243,4.24243,0,0,0-.10971,7.83785c9.80541,4.19843,24.45711,10.471,29.69418,12.71234,10.59746,4.53908,29.0568,12.44172,45.74711,5.76058,20.127-8.06042,29.89167-26.0391,35.72016-36.76194,4.95391-9.12205,16.67359-30.69625,23.61387-43.47025v-.00105Z"/></clipPath><clipPath id="f"><path class="a" d="M181.05645,180.14366l53.92246,134.66665a4.24249,4.24249,0,0,0,7.8389.10867c4.1974-9.80333,10.47206-24.455,12.71443-29.69314,4.536-10.59641,12.43964-29.05993,5.75745-45.74816-8.05833-20.127-26.037-29.89271-36.76089-35.71912-9.122-4.95495-30.69522-16.67359-43.4713-23.6149Z"/></clipPath><clipPath id="h"><path class="a" d="M240.38631,99.91563c-20.126,8.05939-29.89272,26.03492-35.71911,36.7609-4.955,9.121-16.6736,30.69521-23.61492,43.4713L315.719,126.22433a4.24171,4.24171,0,0,0,.10864-7.83786c-9.80331-4.19949-24.4571-10.471-29.69313-12.71339-7.67276-3.28518-19.47082-8.33523-31.72967-8.33627a37.40411,37.40411,0,0,0-14.01848,2.57882"/></clipPath><clipPath id="i"><polyline class="a" points="319.304 42.811 43.721 42.811 43.721 321.685 319.304 321.685"/></clipPath><clipPath id="j"><path class="a" d="M132.38465,199.63849c3.81183,9.51806,40.08475-5.00511,52.4805-9.96842a10.25374,10.25374,0,0,0,.2257-18.94417s-37.85911-16.20965-50.4795-21.61393c-10.12724-4.3353-27.1049-11.60473-33.78813-28.294Z"/></clipPath><clipPath id="k"><path class="a" d="M110.02781,66.652c-2.75751,6.61009-6.55993,14.29329-9.34043,23.39968-2.70213,8.99246-4.281,19.99533-.278,30.45069,3.98319,10.44908,12.4762,17.66938,20.64634,22.33176,8.31328,4.64671,16.3737,7.55991,22.92841,10.45013,13.15016,5.55159,21.3182,8.96949,21.38926,8.99978-.07106-.03134-8.18163-3.584-21.27642-9.26832-6.5244-2.95292-14.5681-5.94239-22.79674-10.60686-8.09386-4.68224-16.43222-11.83984-20.34854-22.11652-3.93616-10.26935-2.43254-21.14162.2048-30.1017,2.70945-9.06352,6.44708-16.78748,9.13981-23.42474,5.57563-13.20868,8.99979-21.39135,8.99979-21.39135s-3.559,8.12626-9.26833,21.27745"/></clipPath><linearGradient id="l" x1="44.33816" y1="634.80397" x2="45.38306" y2="634.80397" gradientTransform="matrix(0.00001, -120.26005, -120.26005, -0.00001, 76472.44844, 5503.02636)" gradientUnits="userSpaceOnUse"><stop offset="0" stop-color="#d5d6d6"/><stop offset="0.25" stop-color="#d5d6d6"/><stop offset="0.75" stop-color="#fff"/><stop offset="1" stop-color="#fff"/></linearGradient><clipPath id="o"><path class="a" d="M177.24881,170.63081a10.22143,10.22143,0,0,0-5.61429,5.48263s-16.20965,37.86118-21.61287,50.47949c-4.33637,10.12829-11.60474,27.1049-28.295,33.78918l78.82052-31.56039c9.52016-3.81392-5.00407-40.08684-9.96842-52.48467a10.24717,10.24717,0,0,0-13.32989-5.70624"/></clipPath><clipPath id="p"><path class="a" d="M153.92438,217.10621c-2.95291,6.52546-5.94239,14.56915-10.60685,22.79676-4.68224,8.0949-11.83986,16.43221-22.11548,20.35166-10.26935,3.93408-21.14162,2.43046-30.10274-.20584-9.06353-2.71154-16.78645-6.44813-23.4237-9.13981-13.20972-5.57667-21.3903-8.99979-21.3903-8.99979s8.12415,3.55791,21.27432,9.26729c6.61008,2.75646,14.29642,6.55888,23.4007,9.34251,8.99248,2.70213,19.9964,4.281,30.45175.278,10.44907-3.98737,17.66939-12.47933,22.32863-20.64842,4.65088-8.31329,7.56513-16.37371,10.45221-22.92737,5.57563-13.20867,8.99875-21.38717,8.99979-21.3903-.001.00313-3.559,8.12625-9.26833,21.27536"/></clipPath><linearGradient id="q" x1="40.83931" y1="633.40495" x2="41.88421" y2="633.40495" gradientTransform="matrix(-120.25899, 0, 0, 120.25899, 5083.1192, -75942.32601)" xlink:href="#l"/><clipPath id="t"><path class="a" d="M177.24568,170.62664a10.25333,10.25333,0,0,0-.22362,18.94313s37.8591,16.2086,50.4795,21.61078c10.12828,4.3395,27.10491,11.60682,33.78813,28.29713l-31.56144-78.82156c-.90385-2.25909-3.63836-3.16293-7.44391-3.16293-12.23693-.001-35.5812,9.34566-45.03866,13.13345"/></clipPath><clipPath id="u"><path class="a" d="M218.01588,207.27886c6.52545,2.9529,14.5702,5.94343,22.79676,10.60686,8.09385,4.68431,16.43221,11.83984,20.34956,22.11442,3.93619,10.26831,2.43152,21.14475-.20583,30.10588-2.7105,9.06458-6.446,16.78749-9.13877,23.4237-5.57562,13.21076-8.99979,21.38926-8.99979,21.38926s3.55792-8.121,9.26729-21.27537c2.75751-6.607,6.561-14.29433,9.34147-23.39757,2.70213-8.99352,4.282-19.99744.27795-30.45279-3.98423-10.44908-12.47828-17.66939-20.64529-22.33072-8.31433-4.6488-16.37474-7.562-22.92946-10.45013-13.20867-5.57667-21.3903-8.99979-21.3903-8.99979s8.12416,3.55791,21.27641,9.26625"/></clipPath><linearGradient id="v" x1="39.44032" y1="636.90382" x2="40.48523" y2="636.90382" gradientTransform="matrix(0, 120.26003, 120.26003, 0, -76362.84976, -4553.71136)" xlink:href="#l"/><clipPath id="y"><path class="a" d="M161.56579,131.476c-9.52015,3.81182,5.00615,40.08475,9.96946,52.48257a10.25332,10.25332,0,0,0,18.94313.22362s16.20966-37.86015,21.61288-50.47949c4.33741-10.12829,11.60578-27.10491,28.29505-33.7871Z"/></clipPath><clipPath id="z"><path class="a" d="M240.70187,99.49767C230.2528,103.484,223.03144,111.977,218.3722,120.14713c-4.64983,8.31016-7.562,16.37163-10.45116,22.92946-5.57668,13.20659-8.9998,21.38822-8.9998,21.38822s3.55687-8.12416,9.26624-21.27641c2.954-6.52546,5.9424-14.5681,10.60791-22.79571,4.68327-8.0949,11.8388-16.43534,22.11443-20.35062,10.27039-3.93617,21.1437-2.43045,30.10378.20689,9.06458,2.70944,16.78748,6.445,23.42578,9.13667,13.20868,5.57668,21.38821,9.00084,21.38821,9.00084s-8.12205-3.55895-21.27327-9.26833c-6.61113-2.75752-14.29538-6.55993-23.4007-9.34043a58.68935,58.68935,0,0,0-16.75092-2.70109,38.10222,38.10222,0,0,0-13.70083,2.421"/></clipPath><linearGradient id="aa" x1="42.93917" y1="638.30048" x2="43.98408" y2="638.30048" gradientTransform="matrix(120.25899, 0, 0, -120.25899, -4973.4179, 76891.65786)" xlink:href="#l"/><clipPath id="ad"><path class="a" d="M173.367,180.664a7.689,7.689,0,1,0,7.68844-7.68842A7.6914,7.6914,0,0,0,173.367,180.664"/></clipPath><linearGradient id="ae" x1="36.93447" y1="633.83696" x2="37.97938" y2="633.83696" gradientTransform="translate(38205.19614 -2087.89204) rotate(89.99999) scale(59.99041)" gradientUnits="userSpaceOnUse"><stop offset="0" stop-color="#98bc7e"/><stop offset="0.00389" stop-color="#98bc7e"/><stop offset="0.07001" stop-color="#61ad45"/><stop offset="0.08" stop-color="#75bf43"/><stop offset="0.22" stop-color="#75bf43"/><stop offset="0.24" stop-color="#569f44"/><stop offset="0.35883" stop-color="#387935"/><stop offset="0.46948" stop-color="#215e2b"/><stop offset="0.56671" stop-color="#144d24"/><stop offset="0.64" stop-color="#0f4722"/><stop offset="0.70573" stop-color="#2f7033"/><stop offset="0.75844" stop-color="#43893e"/><stop offset="0.78999" stop-color="#4b9342"/><stop offset="1" stop-color="#61ad45"/></linearGradient><clipPath id="af"><path class="b" d="M173.36071,180.14887a7.68948,7.68948,0,1,0,7.68948-7.68843,7.69072,7.69072,0,0,0-7.68948,7.68843"/></clipPath><clipPath id="ah"><path class="c" d="M181.05019,172.97454a7.17591,7.17591,0,1,0,.00312,0Z"/></clipPath><radialGradient id="ai" cx="181.05018" cy="180.14887" r="14.35495" gradientTransform="translate(180.41286 -75.25742) rotate(45)" xlink:href="#a"/></defs><title>traceofwind-flat</title><g class="d"><rect class="e" x="57.07032" y="34.02785" width="161.05683" height="154.90777" transform="translate(-36.27935 145.06745) rotate(-49.94663)"/></g><g class="f"><path class="g" d="M127.134,45.48515s24.00779,60.34656,53.78766,134.71994l.26855-.10762C151.41033,105.72409,127.134,45.48515,127.134,45.48515"/></g><g class="h"><rect class="i" x="34.18979" y="142.73005" width="155.49199" height="161.75202" transform="translate(-131.25322 165.3961) rotate(-49.94663)"/></g><g class="f"><path class="g" d="M46.3945,234.07029s60.34655-24.0078,134.71993-53.78661l-.10763-.2696c-74.37442,29.77883-134.6123,54.05621-134.6123,54.05621"/></g><g class="j"><rect class="e" x="143.63701" y="171.52247" width="161.75427" height="155.49413" transform="translate(-110.76311 260.71773) rotate(-49.94664)"/></g><g class="f"><path class="g" d="M234.97955,314.8102s-24.00676-60.3455-53.78768-134.71992l-.26959.10762c29.78092,74.37233,54.05727,134.6123,54.05727,134.6123"/></g><g class="k"><rect class="e" x="174.00193" y="59.18577" width="152.35243" height="159.11315" transform="translate(-17.01141 240.95921) rotate(-49.94663)"/></g><g class="l"><path class="g" d="M315.7184,126.22412s-60.3455,24.00781-134.7189,53.78872l.10762.26749c74.3734-29.77673,134.61128-54.05621,134.61128-54.05621"/></g><g class="m"><rect class="n" x="87.65679" y="107.11206" width="117.105" height="115.75041" transform="translate(-50.85225 66.17075) rotate(-21.82163)"/></g><g class="o"><rect class="p" x="77.14858" y="36.745" width="107.48263" height="134.16872" transform="translate(-29.21643 56.094) rotate(-21.82163)"/></g><g class="o"><rect class="p" x="77.14858" y="36.745" width="107.48263" height="134.16872" transform="translate(-29.21643 56.094) rotate(-21.82163)"/></g><g class="q"><rect class="r" x="108.07358" y="156.71718" width="115.64671" height="116.84193" transform="translate(-68.08352 77.0825) rotate(-21.82162)"/></g><g class="s"><rect class="t" x="37.65522" y="176.57352" width="134.16756" height="107.4838" transform="translate(-78.10744 55.43652) rotate(-21.82163)"/></g><g class="s"><rect class="t" x="37.65522" y="176.57352" width="134.16756" height="107.4838" transform="translate(-78.10744 55.43652) rotate(-21.82163)"/></g><g class="u"><rect class="v" x="158.53288" y="143.55881" width="114.74248" height="109.8522" transform="translate(-58.30997 94.47779) rotate(-21.82162)"/></g><g class="w"><rect class="x" x="177.48233" y="189.3825" width="107.48343" height="134.16661" transform="translate(-78.76481 104.32712) rotate(-21.82163)"/></g><g class="w"><rect class="x" x="177.48233" y="189.3825" width="107.48343" height="134.16661" transform="translate(-78.76481 104.32712) rotate(-21.82163)"/></g><g class="y"><rect class="z" x="138.33998" y="86.74879" width="115.75198" height="117.10483" transform="translate(-39.95138 83.34855) rotate(-21.82163)"/></g><g class="aa"><rect class="ab" x="190.40452" y="76.82691" width="133.93975" height="106.91691" transform="translate(-29.98744 105.00628) rotate(-21.82163)"/></g><g class="aa"><rect class="ab" x="190.40452" y="76.82691" width="133.93975" height="106.91691" transform="translate(-29.98744 105.00628) rotate(-21.82163)"/></g><g class="ac"><rect class="ad" x="171.06" y="170.66837" width="19.99188" height="19.99131" transform="translate(-54.1828 80.2475) rotate(-21.82171)"/></g><path class="b" d="M173.36071,180.14887a7.68948,7.68948,0,1,0,7.68948-7.68843,7.69072,7.69072,0,0,0-7.68948,7.68843"/><g class="ae"><rect class="b" x="173.3607" y="172.46044" width="15.37894" height="15.37897"/></g><path class="c" d="M181.05019,172.97454a7.17591,7.17591,0,1,0,.00312,0Z"/><g class="af"><rect class="ag" x="170.89969" y="169.9984" width="20.30097" height="20.30097" transform="translate(-74.35613 180.78619) rotate(-45)"/></g></svg>