<svg xmlns="http://www.w3.org/2000/svg" xmlns:xlink="http://www.w3.org/1999/xlink" viewBox="0 0 363.43419 364.55757"><defs><style>.a{fill:#e6e7e8;}.b{fill:#d1d3d4;}.c{fill:url(#a);}.d{fill:none;}.e{fill:#f1f2f2;}.f{fill:url(#b);}.g{fill:url(#c);}.h{fill:url(#d);}.i{fill:url(#e);}.j{fill:url(#f);}.k{clip-path:url(#g);}.l{fill:url(#h);}.m{clip-path:url(#i);}.n{fill:url(#j);}.o{clip-path:url(#l);}.p{fill:url(#m);}.q{clip-path:url(#o);}.r{fill:url(#p);}.s{clip-path:url(#r);}.t{fill:url(#s);}.u{clip-path:url(#t);}.v{fill:url(#u);}.w{clip-path:url(#v);}.x{clip-path:url(#y);}.y{fill:url(#z);}.z{clip-path:url(#aa);}.aa{fill:url(#ab);}.ab{clip-path:url(#ac);}.ac{clip-path:url(#af);}.ad{fill:url(#ag);}.ae{clip-path:url(#ah);}.af{fill:url(#ai);}.ag{clip-path:url(#aj);}.ah{clip-path:url(#al);}.ai{fill:url(#am);}.aj{clip-path:url(#an);}.ak{fill:url(#ao);}.al{clip-path:url(#ap);}.am{clip-path:url(#ar);}.an{clip-path:url(#as);}.ao{fill:url(#at);}.ap{clip-path:url(#au);}.aq{fill:url(#av);}</style><linearGradient id="a" x1="172.38724" y1="200.32667" x2="263.71352" y2="200.32667" gradientUnits="userSpaceOnUse"><stop offset="0" stop-color="#8d979d"/><stop offset="0.25771" stop-color="#aeb5b9"/><stop offset="0.75942" stop-color="#e8eaeb"/><stop offset="1" stop-color="#fff"/></linearGradient><linearGradient id="b" x1="159.87094" y1="146.5053" x2="242.61623" y2="146.5053" xlink:href="#a"/><linearGradient id="c" x1="245.90684" y1="289.58405" x2="218.90684" y2="196.58405" gradientUnits="userSpaceOnUse"><stop offset="0.15764" stop-color="#ec008c"/><stop offset="1" stop-color="#740041"/></linearGradient><linearGradient id="d" x1="253.15942" y1="152.36266" x2="203.15942" y2="115.36266" gradientUnits="userSpaceOnUse"><stop offset="0.15764" stop-color="#00aeef"/><stop offset="1" stop-color="#00496e"/></linearGradient><linearGradient id="e" x1="174.47933" y1="201.17988" x2="135.47933" y2="161.17988" xlink:href="#a"/><linearGradient id="f" x1="170.05631" y1="196.47192" x2="161.05631" y2="269.47192" xlink:href="#a"/><clipPath id="g"><path class="a" d="M124.3048,43.20857a4.2009,4.2009,0,0,0-3.902,2.58694c-4.23844,9.89531-10.56921,24.684-12.83027,29.96964-4.58119,10.69469-12.55819,29.3295-5.814,46.17358,8.13519,20.31265,26.27854,30.17,37.10191,36.05152,9.20666,4.9988,30.981,16.82616,43.8756,23.83292L128.31229,45.90728a4.23423,4.23423,0,0,0-3.96741-2.69871Z"/></clipPath><linearGradient id="h" x1="153.84624" y1="161.31054" x2="126.84624" y2="73.31054" gradientTransform="translate(135.63363 -66.18953) rotate(49.94663)" gradientUnits="userSpaceOnUse"><stop offset="0" stop-color="#00aeef"/><stop offset="1" stop-color="#007896"/></linearGradient><clipPath id="i"><path class="b" d="M46.8254,236.24267a4.28179,4.28179,0,0,0-.11073,7.91056c9.89637,4.23739,24.684,10.56816,29.96964,12.83027,10.69576,4.58119,29.32633,12.55714,46.17147,5.814,20.31372-8.1352,30.169-26.28065,36.05152-37.103,4.99987-9.20667,16.82826-30.981,23.83292-43.8735V181.82Z"/></clipPath><linearGradient id="j" x1="98.06297" y1="244.26194" x2="163.06297" y2="163.26194" gradientTransform="translate(213.02115 -6.0207) rotate(49.94663)" gradientUnits="userSpaceOnUse"><stop offset="0" stop-color="#393839"/><stop offset="1" stop-color="#58595b"/></linearGradient><clipPath id="l"><path class="g" d="M182.736,181.81474l54.42267,135.91587a4.28184,4.28184,0,0,0,7.91161.10968c4.23634-9.89426,10.56921-24.68187,12.83238-29.96859,4.578-10.6947,12.555-29.3295,5.81086-46.17253-8.13309-20.31371-26.27854-30.17-37.10191-36.05046-9.20666-5.00092-30.97995-16.82827-43.87454-23.834Z"/></clipPath><linearGradient id="m" x1="238.27314" y1="291.80028" x2="211.27314" y2="198.80028" gradientTransform="translate(273.35378 -83.75878) rotate(49.94664)" gradientUnits="userSpaceOnUse"><stop offset="0" stop-color="#fff200"/><stop offset="0.06033" stop-color="#feea03"/><stop offset="0.28458" stop-color="#facf0e"/><stop offset="0.51383" stop-color="#f7bc16"/><stop offset="0.74921" stop-color="#f6b11a"/><stop offset="1" stop-color="#f5ad1c"/></linearGradient><clipPath id="o"><path class="h" d="M242.61623,100.84249c-20.31267,8.13415-30.17,26.27643-36.05046,37.1019-5.00092,9.20562-16.82826,30.98-23.834,43.87457l135.91589-54.42373a4.28106,4.28106,0,0,0,.10965-7.91057c-9.89425-4.23843-24.684-10.56814-29.96858-12.83131-7.74393-3.31566-19.65143-8.41256-32.024-8.4136a37.751,37.751,0,0,0-14.14852,2.60274"/></clipPath><linearGradient id="p" x1="258.82298" y1="144.7092" x2="208.82298" y2="107.7092" gradientTransform="translate(197.20045 -143.35376) rotate(49.94663)" gradientUnits="userSpaceOnUse"><stop offset="0.15764" stop-color="#ec008c"/><stop offset="1" stop-color="#a20060"/></linearGradient><clipPath id="r"><path class="i" d="M133.6127,201.49041c3.84719,9.60636,40.45659-5.05153,52.96733-10.06089a10.34885,10.34885,0,0,0,.22779-19.1199s-38.2103-16.36-50.94776-21.81442c-10.22119-4.37553-27.35634-11.71239-34.10157-28.55647Z"/></clipPath><linearGradient id="s" x1="163.15801" y1="192.072" x2="127.15801" y2="133.072" gradientTransform="translate(72.47143 -42.9211) rotate(21.82163)" gradientUnits="userSpaceOnUse"><stop offset="0" stop-color="#bcbec0"/><stop offset="0.61473" stop-color="#e8e9e9"/><stop offset="1" stop-color="#fff"/></linearGradient><clipPath id="t"><path class="d" d="M111.04847,67.27033c-2.78309,6.67141-6.62078,14.42588-9.42707,23.61674-2.7272,9.07588-4.3207,20.18082-.28053,30.73317,4.02014,10.546,12.59193,17.83329,20.83786,22.53892,8.3904,4.68982,16.52559,7.63,23.1411,10.54707,13.27215,5.60308,21.516,9.05269,21.58768,9.08326-.07172-.03163-8.25753-3.61727-21.47379-9.3543-6.58492-2.9803-14.70323-5.99751-23.00821-10.70525-8.16894-4.72567-16.58466-11.94967-20.5373-22.32168-3.97268-10.36462-2.45511-21.33774.2067-30.38093,2.73458-9.1476,6.50689-16.94321,9.22459-23.642,5.62736-13.33121,9.08328-21.58978,9.08328-21.58978s-3.592,8.20163-9.35431,21.47482"/></clipPath><linearGradient id="u" x1="47.31597" y1="637.79529" x2="48.37057" y2="637.79529" gradientTransform="matrix(0.00001, -120.26005, -120.26005, -0.00001, 76833.39888, 5862.72436)" gradientUnits="userSpaceOnUse"><stop offset="0" stop-color="#d6d8d7"/><stop offset="0.25" stop-color="#d6d8d7"/><stop offset="0.75" stop-color="#fff"/><stop offset="1" stop-color="#fff"/></linearGradient><clipPath id="v"><path class="e" d="M111.04847,67.27033c-2.78309,6.67141-6.62078,14.42588-9.42707,23.61674-2.7272,9.07588-4.3207,20.18082-.28053,30.73317,4.02014,10.546,12.59193,17.83329,20.83786,22.53892,8.3904,4.68982,16.52559,7.63,23.1411,10.54707,13.27215,5.60308,21.516,9.05269,21.58768,9.08326-.07172-.03163-8.25753-3.61727-21.47379-9.3543-6.58492-2.9803-14.70323-5.99751-23.00821-10.70525-8.16894-4.72567-16.58466-11.94967-20.5373-22.32168-3.97268-10.36462-2.45511-21.33774.2067-30.38093,2.73458-9.1476,6.50689-16.94321,9.22459-23.642,5.62736-13.33121,9.08328-21.58978,9.08328-21.58978s-3.592,8.20163-9.35431,21.47482"/></clipPath><clipPath id="y"><path class="j" d="M178.893,172.21365a10.31623,10.31623,0,0,0-5.66637,5.53349s-16.36,38.2124-21.81336,50.94776c-4.37659,10.22224-11.71239,27.35633-28.55753,34.10262l79.55169-31.85316c9.60847-3.8493-5.05048-40.4587-10.06088-52.97154a10.34224,10.34224,0,0,0-13.45355-5.75917"/></clipPath><linearGradient id="z" x1="169.98431" y1="196.46305" x2="160.98431" y2="269.46305" gradientTransform="translate(92.71012 -46.68036) rotate(21.82162)" xlink:href="#s"/><clipPath id="aa"><path class="d" d="M155.35225,219.12018c-2.98031,6.586-5.99752,14.70429-10.70526,23.00822-4.72566,8.17-11.94968,16.58465-22.32062,20.54046-10.36462,3.97057-21.33774,2.453-30.382-.20776-9.14761-2.73669-16.94216-6.50794-23.641-9.22459-13.33227-5.62841-21.58873-9.08328-21.58873-9.08328s8.19952,3.59092,21.47166,9.35326c6.67141,2.782,14.42905,6.61972,23.61779,9.42918,9.07589,2.7272,20.18189,4.3207,30.73422.28052,10.546-4.02435,17.8333-12.59509,22.53577-20.84,4.694-8.3904,7.6353-16.5256,10.54917-23.14005,5.62734-13.3312,9.08222-21.58557,9.08327-21.58873-.001.00316-3.592,8.20163-9.3543,21.47273"/></clipPath><linearGradient id="ab" x1="43.80887" y1="636.37633" x2="44.86347" y2="636.37633" gradientTransform="matrix(-120.25899, 0, 0, 120.25899, 5441.82941, -76297.52455)" xlink:href="#u"/><clipPath id="ac"><path class="e" d="M155.35225,219.12018c-2.98031,6.586-5.99752,14.70429-10.70526,23.00822-4.72566,8.17-11.94968,16.58465-22.32062,20.54046-10.36462,3.97057-21.33774,2.453-30.382-.20776-9.14761-2.73669-16.94216-6.50794-23.641-9.22459-13.33227-5.62841-21.58873-9.08328-21.58873-9.08328s8.19952,3.59092,21.47166,9.35326c6.67141,2.782,14.42905,6.61972,23.61779,9.42918,9.07589,2.7272,20.18189,4.3207,30.73422.28052,10.546-4.02435,17.8333-12.59509,22.53577-20.84,4.694-8.3904,7.6353-16.5256,10.54917-23.14005,5.62734-13.3312,9.08222-21.58557,9.08327-21.58873-.001.00316-3.592,8.20163-9.3543,21.47273"/></clipPath><clipPath id="af"><path class="c" d="M178.88988,172.20944a10.34844,10.34844,0,0,0-.22569,19.11885s38.21029,16.359,50.94776,21.81125c10.22224,4.37976,27.35635,11.7145,34.10157,28.55963L231.8593,162.14643c-.91223-2.28005-3.67211-3.19227-7.513-3.19227-12.35045-.00106-35.91127,9.43235-45.45646,13.25528"/></clipPath><linearGradient id="ag" x1="200.22395" y1="176.25762" x2="236.22395" y2="225.25762" gradientTransform="translate(90.07884 -66.64572) rotate(21.82162)" xlink:href="#s"/><clipPath id="ah"><path class="d" d="M220.03829,209.20166c6.586,2.9803,14.70535,5.99856,23.00822,10.70525,8.16894,4.72777,16.58465,11.94967,20.53834,22.31956,3.97269,10.36357,2.45407,21.34091-.20775,30.38516-2.73564,9.14866-6.50584,16.94321-9.22354,23.641-5.62735,13.33332-9.08328,21.58768-9.08328,21.58768s3.59093-8.19636,9.35326-21.47273c2.78309-6.66823,6.62184-14.42693,9.42813-23.61461,2.72719-9.077,4.32176-20.183.28053-30.73529-4.0212-10.546-12.594-17.83329-20.83681-22.53786-8.39146-4.69192-16.52664-7.63215-23.14216-10.54707-13.3312-5.6284-21.58872-9.08327-21.58872-9.08327s8.19951,3.59091,21.47378,9.3522"/></clipPath><linearGradient id="ai" x1="42.38994" y1="639.88346" x2="43.44454" y2="639.88346" gradientTransform="matrix(0, 120.26003, 120.26003, 0, -76719.03606, -4906.67587)" xlink:href="#u"/><clipPath id="aj"><path class="e" d="M220.03829,209.20166c6.586,2.9803,14.70535,5.99856,23.00822,10.70525,8.16894,4.72777,16.58465,11.94967,20.53834,22.31956,3.97269,10.36357,2.45407,21.34091-.20775,30.38516-2.73564,9.14866-6.50584,16.94321-9.22354,23.641-5.62735,13.33332-9.08328,21.58768-9.08328,21.58768s3.59093-8.19636,9.35326-21.47273c2.78309-6.66823,6.62184-14.42693,9.42813-23.61461,2.72719-9.077,4.32176-20.183.28053-30.73529-4.0212-10.546-12.594-17.83329-20.83681-22.53786-8.39146-4.69192-16.52664-7.63215-23.14216-10.54707-13.3312-5.6284-21.58872-9.08327-21.58872-9.08327s8.19951,3.59091,21.47378,9.3522"/></clipPath><clipPath id="al"><path class="f" d="M163.06454,132.69566c-9.60847,3.84717,5.05259,40.45659,10.06194,52.96941a10.34844,10.34844,0,0,0,19.11886.22569s16.36-38.21135,21.81336-50.94775c4.37765-10.22224,11.71345-27.35635,28.55753-34.10052Z"/></clipPath><linearGradient id="am" x1="121.84192" y1="146.64908" x2="274.23038" y2="146.64908" gradientTransform="translate(68.70232 -63.10561) rotate(21.82163)" xlink:href="#s"/><clipPath id="an"><path class="d" d="M242.93472,100.42065c-10.546,4.02331-17.83435,12.59509-22.53681,20.841-4.693,8.38725-7.63215,16.5235-10.54812,23.14216-5.62841,13.32911-9.08328,21.58663-9.08328,21.58663s3.58987-8.19953,9.3522-21.47378c2.98136-6.586,5.99752-14.70324,10.70631-23.00717,4.72671-8.17,11.94863-16.58781,22.31957-20.5394,10.36566-3.97268,21.33984-2.453,30.383.2088,9.14867,2.73459,16.94321,6.50478,23.64309,9.22144,13.33121,5.62841,21.58661,9.08432,21.58661,9.08432s-8.19739-3.592-21.47061-9.3543c-6.67245-2.7831-14.428-6.62078-23.61777-9.42707a59.23384,59.23384,0,0,0-16.90631-2.72615,38.45567,38.45567,0,0,0-13.82792,2.44351"/></clipPath><linearGradient id="ao" x1="45.89705" y1="641.30003" x2="46.95165" y2="641.30003" gradientTransform="matrix(120.25899, 0, 0, -120.25899, -5327.36295, 77253.59)" xlink:href="#u"/><clipPath id="ap"><path class="e" d="M242.93472,100.42065c-10.546,4.02331-17.83435,12.59509-22.53681,20.841-4.693,8.38725-7.63215,16.5235-10.54812,23.14216-5.62841,13.32911-9.08328,21.58663-9.08328,21.58663s3.58987-8.19953,9.3522-21.47378c2.98136-6.586,5.99752-14.70324,10.70631-23.00717,4.72671-8.17,11.94863-16.58781,22.31957-20.5394,10.36566-3.97268,21.33984-2.453,30.383.2088,9.14867,2.73459,16.94321,6.50478,23.64309,9.22144,13.33121,5.62841,21.58661,9.08432,21.58661,9.08432s-8.19739-3.592-21.47061-9.3543c-6.67245-2.7831-14.428-6.62078-23.61777-9.42707a59.23384,59.23384,0,0,0-16.90631-2.72615,38.45567,38.45567,0,0,0-13.82792,2.44351"/></clipPath><clipPath id="ar"><path class="e" d="M174.9752,182.33992a7.76028,7.76028,0,1,0,7.75976-7.75974,7.76275,7.76275,0,0,0-7.75976,7.75974"/></clipPath><clipPath id="as"><path class="d" d="M174.96887,181.82a7.76081,7.76081,0,1,0,7.76081-7.75975,7.76205,7.76205,0,0,0-7.76081,7.75975"/></clipPath><linearGradient id="at" x1="66.67001" y1="638.48621" x2="67.7246" y2="638.48621" gradientTransform="matrix(0, -14.71814, -14.71814, 0, 9580.05639, 1170.84009)" gradientUnits="userSpaceOnUse"><stop offset="0" stop-color="#b3b5b5"/><stop offset="0.3" stop-color="#848788"/><stop offset="1" stop-color="#e9e9e7"/></linearGradient><clipPath id="au"><path class="d" d="M182.72968,174.57912a7.24248,7.24248,0,1,0,.00315,0Z"/></clipPath><radialGradient id="av" cx="28.85699" cy="655.78279" r="1.07005" gradientTransform="matrix(0, 13.58419, 13.58419, 0, -8720.37285, -215.28636)" gradientUnits="userSpaceOnUse"><stop offset="0" stop-color="#e9e9e7"/><stop offset="0.25" stop-color="#e9e9e7"/><stop offset="0.36864" stop-color="#e0e1df"/><stop offset="0.55816" stop-color="#c9cbca"/><stop offset="0.79372" stop-color="#a4a7a7"/><stop offset="0.79671" stop-color="#a3a6a7"/><stop offset="0.86614" stop-color="#a9acad"/><stop offset="0.9607" stop-color="#bbbdbc"/><stop offset="1" stop-color="#c4c6c5"/></radialGradient></defs><title>Asset 1</title><path class="a" d="M124.3048,43.20857a4.2009,4.2009,0,0,0-3.902,2.58694c-4.23844,9.89531-10.56921,24.684-12.83027,29.96964-4.58119,10.69469-12.55819,29.3295-5.814,46.17358,8.13519,20.31265,26.27854,30.17,37.10191,36.05152,9.20666,4.9988,30.981,16.82616,43.8756,23.83292L128.31229,45.90728a4.23423,4.23423,0,0,0-3.96741-2.69871Z"/><g class="k"><rect class="l" x="57.59973" y="34.34351" width="162.55086" height="156.34476" transform="translate(-36.6159 146.41315) rotate(-49.94663)"/></g><path class="b" d="M46.8254,236.24267a4.28179,4.28179,0,0,0-.11073,7.91056c9.89637,4.23739,24.684,10.56816,29.96964,12.83027,10.69576,4.58119,29.32633,12.55714,46.17147,5.814,20.31372-8.1352,30.169-26.28065,36.05152-37.103,4.99987-9.20667,16.82826-30.981,23.83292-43.8735V181.82Z"/><g class="m"><rect class="n" x="34.50695" y="144.05407" width="156.93439" height="163.2525" transform="translate(-132.47078 166.93038) rotate(-49.94663)"/></g><path class="g" d="M182.736,181.81474l54.42267,135.91587a4.28184,4.28184,0,0,0,7.91161.10968c4.23634-9.89426,10.56921-24.68187,12.83238-29.96859,4.578-10.6947,12.555-29.3295,5.81086-46.17253-8.13309-20.31371-26.27854-30.17-37.10191-36.05046-9.20666-5.00092-30.97995-16.82827-43.87454-23.834Z"/><g class="o"><rect class="p" x="144.96945" y="173.11358" width="163.25476" height="156.93655" transform="translate(-111.79059 263.13625) rotate(-49.94664)"/></g><path class="h" d="M242.61623,100.84249c-20.31267,8.13415-30.17,26.27643-36.05046,37.1019-5.00092,9.20562-16.82826,30.98-23.834,43.87457l135.91589-54.42373a4.28106,4.28106,0,0,0,.10965-7.91057c-9.89425-4.23843-24.684-10.56814-29.96858-12.83131-7.74393-3.31566-19.65143-8.41256-32.024-8.4136a37.751,37.751,0,0,0-14.14852,2.60274"/><g class="q"><rect class="r" x="175.61604" y="59.7348" width="153.76571" height="160.58914" transform="translate(-17.16921 243.19444) rotate(-49.94663)"/></g><path class="i" d="M133.6127,201.49041c3.84719,9.60636,40.45659-5.05153,52.96733-10.06089a10.34885,10.34885,0,0,0,.22779-19.1199s-38.2103-16.36-50.94776-21.81442c-10.22119-4.37553-27.35634-11.71239-34.10157-28.55647Z"/><g class="s"><rect class="t" x="88.46993" y="108.10568" width="118.19131" height="116.82416" transform="translate(-50.25009 64.6712) rotate(-21.21117)"/></g><g class="u"><rect class="v" x="77.86424" y="37.08587" width="108.47968" height="135.41332" transform="translate(-29.48746 56.61435) rotate(-21.82163)"/></g><path class="e" d="M111.04847,67.27033c-2.78309,6.67141-6.62078,14.42588-9.42707,23.61674-2.7272,9.07588-4.3207,20.18082-.28053,30.73317,4.02014,10.546,12.59193,17.83329,20.83786,22.53892,8.3904,4.68982,16.52559,7.63,23.1411,10.54707,13.27215,5.60308,21.516,9.05269,21.58768,9.08326-.07172-.03163-8.25753-3.61727-21.47379-9.3543-6.58492-2.9803-14.70323-5.99751-23.00821-10.70525-8.16894-4.72567-16.58466-11.94967-20.5373-22.32168-3.97268-10.36462-2.45511-21.33774.2067-30.38093,2.73458-9.1476,6.50689-16.94321,9.22459-23.642,5.62736-13.33121,9.08328-21.58978,9.08328-21.58978s-3.592,8.20163-9.35431,21.47482"/><g class="w"><rect class="v" x="77.86424" y="37.08587" width="108.47968" height="135.41332" transform="translate(-29.48746 56.61435) rotate(-21.82163)"/></g><path class="j" d="M178.893,172.21365a10.31623,10.31623,0,0,0-5.66637,5.53349s-16.36,38.2124-21.81336,50.94776c-4.37659,10.22224-11.71239,27.35633-28.55753,34.10262l79.55169-31.85316c9.60847-3.8493-5.05048-40.4587-10.06088-52.97154a10.34224,10.34224,0,0,0-13.45355-5.75917"/><g class="x"><rect class="y" x="109.07611" y="158.17095" width="116.71949" height="117.9258" transform="translate(-68.71509 77.79755) rotate(-21.82162)"/></g><g class="z"><rect class="aa" x="38.00452" y="178.21149" width="135.41215" height="108.48086" transform="translate(-78.832 55.95077) rotate(-21.82163)"/></g><path class="e" d="M155.35225,219.12018c-2.98031,6.586-5.99752,14.70429-10.70526,23.00822-4.72566,8.17-11.94968,16.58465-22.32062,20.54046-10.36462,3.97057-21.33774,2.453-30.382-.20776-9.14761-2.73669-16.94216-6.50794-23.641-9.22459-13.33227-5.62841-21.58873-9.08328-21.58873-9.08328s8.19952,3.59092,21.47166,9.35326c6.67141,2.782,14.42905,6.61972,23.61779,9.42918,9.07589,2.7272,20.18189,4.3207,30.73422.28052,10.546-4.02435,17.8333-12.59509,22.53577-20.84,4.694-8.3904,7.6353-16.5256,10.54917-23.14005,5.62734-13.3312,9.08222-21.58557,9.08327-21.58873-.001.00316-3.592,8.20163-9.3543,21.47273"/><g class="ab"><rect class="aa" x="38.00452" y="178.21149" width="135.41215" height="108.48086" transform="translate(-78.832 55.95077) rotate(-21.82163)"/></g><path class="c" d="M178.88988,172.20944a10.34844,10.34844,0,0,0-.22569,19.11885s38.21029,16.359,50.94776,21.81125c10.22224,4.37976,27.35635,11.7145,34.10157,28.55963L231.8593,162.14643c-.91223-2.28005-3.67211-3.19227-7.513-3.19227-12.35045-.00106-35.91127,9.43235-45.45646,13.25528"/><g class="ac"><rect class="ad" x="160.00349" y="144.89051" width="115.80688" height="110.87123" transform="matrix(0.92835, -0.37172, 0.37172, 0.92835, -58.85088, 95.35421)"/></g><g class="ae"><rect class="af" x="179.12872" y="191.13929" width="108.48049" height="135.41119" transform="translate(-79.49546 105.2949) rotate(-21.82163)"/></g><path class="e" d="M220.03829,209.20166c6.586,2.9803,14.70535,5.99856,23.00822,10.70525,8.16894,4.72777,16.58465,11.94967,20.53834,22.31956,3.97269,10.36357,2.45407,21.34091-.20775,30.38516-2.73564,9.14866-6.50584,16.94321-9.22354,23.641-5.62735,13.33332-9.08328,21.58768-9.08328,21.58768s3.59093-8.19636,9.35326-21.47273c2.78309-6.66823,6.62184-14.42693,9.42813-23.61461,2.72719-9.077,4.32176-20.183.28053-30.73529-4.0212-10.546-12.594-17.83329-20.83681-22.53786-8.39146-4.69192-16.52664-7.63215-23.14216-10.54707-13.3312-5.6284-21.58872-9.08327-21.58872-9.08327s8.19951,3.59091,21.47378,9.3522"/><g class="ag"><rect class="e" x="179.12872" y="191.13929" width="108.48049" height="135.41119" transform="translate(-79.49546 105.2949) rotate(-21.82163)"/></g><path class="f" d="M163.06454,132.69566c-9.60847,3.84717,5.05259,40.45659,10.06194,52.96941a10.34844,10.34844,0,0,0,19.11886.22569s16.36-38.21135,21.81336-50.94775c4.37765-10.22224,11.71345-27.35635,28.55753-34.10052Z"/><g class="ah"><rect class="ai" x="139.62328" y="87.55351" width="116.82574" height="118.19114" transform="translate(-40.32198 84.12172) rotate(-21.82163)"/></g><g class="aj"><rect class="ak" x="192.17079" y="77.53958" width="135.18223" height="107.90871" transform="translate(-30.26561 105.98036) rotate(-21.82163)"/></g><path class="e" d="M242.93472,100.42065c-10.546,4.02331-17.83435,12.59509-22.53681,20.841-4.693,8.38725-7.63215,16.5235-10.54812,23.14216-5.62841,13.32911-9.08328,21.58663-9.08328,21.58663s3.58987-8.19953,9.3522-21.47378c2.98136-6.586,5.99752-14.70324,10.70631-23.00717,4.72671-8.17,11.94863-16.58781,22.31957-20.5394,10.36566-3.97268,21.33984-2.453,30.383.2088,9.14867,2.73459,16.94321,6.50478,23.64309,9.22144,13.33121,5.62841,21.58661,9.08432,21.58661,9.08432s-8.19739-3.592-21.47061-9.3543c-6.67245-2.7831-14.428-6.62078-23.61777-9.42707a59.23384,59.23384,0,0,0-16.90631-2.72615,38.45567,38.45567,0,0,0-13.82792,2.44351"/><g class="al"><rect class="ak" x="192.17079" y="77.53958" width="135.18223" height="107.90871" transform="translate(-30.26561 105.98036) rotate(-21.82163)"/></g><path class="e" d="M174.9752,182.33992a7.76028,7.76028,0,1,0,7.75976-7.75974,7.76275,7.76275,0,0,0-7.75976,7.75974"/><g class="am"><rect class="e" x="172.64682" y="172.25156" width="20.17733" height="20.17675" transform="translate(-54.68542 80.99191) rotate(-21.82171)"/></g><g class="an"><rect class="ao" x="174.96886" y="174.06025" width="15.5216" height="15.52163"/></g><g class="ap"><rect class="aq" x="172.48502" y="171.57537" width="20.48929" height="20.48929" transform="translate(-75.04588 182.46324) rotate(-45)"/></g></svg>